HIERARCHY
ROOT Hips
{
	OFFSET 0.000000 0.000000 0.000000
	CHANNELS 6 Xposition Yposition Zposition Zrotation Yrotation Xrotation 
	JOINT LHipJoint
	{
		OFFSET 0.000000 0.000000 0.000000
		CHANNELS 3 Zrotation Yrotation Xrotation
		JOINT LeftUpLeg
		{
			OFFSET 8.178360 -10.767780 5.035740
			CHANNELS 3 Zrotation Yrotation Xrotation
			JOINT LeftLeg
			{
				OFFSET 14.688660 -40.356780 0.000000
				CHANNELS 3 Zrotation Yrotation Xrotation
				JOINT LeftFoot
				{
					OFFSET 15.373200 -42.237540 0.000000
					CHANNELS 3 Zrotation Yrotation Xrotation
					JOINT LeftToeBase
					{
						OFFSET 0.945840 -2.598660 13.935300
						CHANNELS 3 Zrotation Yrotation Xrotation
						End Site
						{
							OFFSET 0.000000 0.000000 0.000000
						}
					}
				}
			}
		}
	}
	JOINT RHipJoint
	{
		OFFSET 0.000000 0.000000 0.000000
		CHANNELS 3 Zrotation Yrotation Xrotation
		JOINT RightUpLeg
		{
			OFFSET -7.833120 -10.767780 5.035740
			CHANNELS 3 Zrotation Yrotation Xrotation
			JOINT RightLeg
			{
				OFFSET -15.255180 -41.913300 0.000000
				CHANNELS 3 Zrotation Yrotation Xrotation
				JOINT RightFoot
				{
					OFFSET -15.409560 -42.337380 0.000000
					CHANNELS 3 Zrotation Yrotation Xrotation
					JOINT RightToeBase
					{
						OFFSET -0.988380 -2.715540 14.178900
						CHANNELS 3 Zrotation Yrotation Xrotation
						End Site
						{
							OFFSET 0.000000 0.000000 0.000000
						}
					}
				}
			}
		}
	}
	JOINT LowerBack
	{
		OFFSET 0.000000 0.000000 0.000000
		CHANNELS 3 Zrotation Yrotation Xrotation
		JOINT Spine
		{
			OFFSET 0.169620 12.213540 -1.160280
			CHANNELS 3 Zrotation Yrotation Xrotation
			JOINT Spine1
			{
				OFFSET 0.340320 12.293100 -0.256500
				CHANNELS 3 Zrotation Yrotation Xrotation
				JOINT Neck
				{
					OFFSET 0.000000 0.000000 0.000000
					CHANNELS 3 Zrotation Yrotation Xrotation
					JOINT Neck1
					{
						OFFSET -0.325020 10.477440 1.032120
						CHANNELS 3 Zrotation Yrotation Xrotation
						JOINT Head
						{
							OFFSET 0.624420 10.568160 -0.743820
							CHANNELS 3 Zrotation Yrotation Xrotation
							End Site
							{
								OFFSET 0.000000 0.000000 0.000000
							}
						}
					}
				}
				JOINT LeftShoulder
				{
					OFFSET 0.000000 0.000000 0.000000
					CHANNELS 3 Zrotation Yrotation Xrotation
					JOINT LeftArm
					{
						OFFSET 20.174460 7.205340 -1.867260
						CHANNELS 3 Zrotation Yrotation Xrotation
						JOINT LeftForeArm
						{
							OFFSET 29.898000 -0.000000 -0.000000
							CHANNELS 3 Zrotation Yrotation Xrotation
							JOINT LeftHand
							{
								OFFSET 20.901360 -0.000000 -0.000000
								CHANNELS 3 Zrotation Yrotation Xrotation
								JOINT LeftFingerBase
								{
									OFFSET 0.000000 0.000000 0.000000
									CHANNELS 3 Zrotation Yrotation Xrotation
									JOINT LeftHandIndex1
									{
										OFFSET 4.291560 -0.000000 -0.000000
										CHANNELS 3 Zrotation Yrotation Xrotation
										End Site
										{
											OFFSET 0.000000 0.000000 0.000000
										}
									}
								}
								JOINT LThumb
								{
									OFFSET 0.000000 0.000000 0.000000
									CHANNELS 3 Zrotation Yrotation Xrotation
									End Site
									{
										OFFSET 0.000000 0.000000 0.000000
									}
								}
							}
						}
					}
				}
				JOINT RightShoulder
				{
					OFFSET 0.000000 0.000000 0.000000
					CHANNELS 3 Zrotation Yrotation Xrotation
					JOINT RightArm
					{
						OFFSET -18.819600 8.244300 -2.427900
						CHANNELS 3 Zrotation Yrotation Xrotation
						JOINT RightForeArm
						{
							OFFSET -31.451400 -0.000000 -0.000000
							CHANNELS 3 Zrotation Yrotation Xrotation
							JOINT RightHand
							{
								OFFSET -20.665020 -0.000000 -0.000000
								CHANNELS 3 Zrotation Yrotation Xrotation
								JOINT RightFingerBase
								{
									OFFSET 0.000000 0.000000 0.000000
									CHANNELS 3 Zrotation Yrotation Xrotation
									JOINT RightHandIndex1
									{
										OFFSET -3.735180 -0.000000 -0.000000
										CHANNELS 3 Zrotation Yrotation Xrotation
										End Site
										{
											OFFSET 0.000000 0.000000 0.000000
										}
									}
								}
								JOINT RThumb
								{
									OFFSET 0.000000 0.000000 0.000000
									CHANNELS 3 Zrotation Yrotation Xrotation
									End Site
									{
										OFFSET 0.000000 0.000000 0.000000
									}
								}
							}
						}
					}
				}
			}
		}
	}
}
MOTION
Frames:	7
Frame Time:	0.0333333
-48.170268 106.912302 -186.931410 -1.369540 -4.208577 0.380159 3.488444 2.438681 1.263488 -18.864876 -9.201641 -23.447624 11.184651 17.757240 63.715720 0.329281 0.118423 9.999388 0.040000 -1.290400 -3.548300 -5.284863 -3.257971 0.600854 33.600108 11.069973 -6.483406 -1.519755 -6.103967 20.167415 0.597385 -4.135592 0.848952 -0.565400 -4.815900 13.384200 -2.112410 -2.796738 6.405543 3.410335 -4.231963 -1.785952 10.053056 -1.350826 -5.639906 -12.994975 1.580027 -2.795109 3.350814 3.422303 17.710363 4.183700 0.440400 7.799100 -7.025252 3.753138 -2.321922 -87.527588 6.788897 18.452432 13.541656 -24.434968 -3.439365 -0.772620 -3.058970 11.841514 14.897323 26.951529 7.710900 -7.125000 0.000000 0.000000 -18.738200 60.060800 -7.033200 5.643286 -2.654729 -2.101998 76.018567 -6.554463 23.558349 -14.081150 21.307050 -3.338461 1.086126 -0.358514 6.208912 -15.420515 10.407695 -3.126400 7.125000 0.000000 0.000000 7.432300 -18.983900 4.649400 
-48.356988 106.411356 -183.444750 -2.453014 -5.072558 0.083467 3.495847 2.351076 1.223739 -17.290093 -9.595634 -26.667972 10.129768 17.442805 60.491081 0.292170 -0.422298 6.202904 0.063700 -1.628500 -4.480200 -5.220452 -3.227993 0.492752 35.033642 9.720691 -4.434236 -1.620111 -6.282074 21.002271 0.111813 -1.273366 -2.203067 -0.332800 -3.707500 10.255100 -0.059609 -1.246246 7.016052 2.838782 -1.936865 -1.461521 7.402069 -0.327369 -5.724125 -11.155103 0.352974 -4.204818 3.591396 1.604136 17.575856 3.877600 -0.225300 8.281500 -7.090545 3.607987 -2.292389 -86.092912 6.441331 21.606258 12.939486 -23.477156 -3.133856 -0.722265 -3.035950 12.592478 13.882518 26.696683 7.068300 -7.125000 0.000000 0.000000 -19.690600 59.534000 -7.157900 5.601800 -2.588749 -2.080454 77.774286 -4.983175 21.342240 -14.677557 22.067017 -3.594432 1.101283 -0.516525 6.463088 -15.982023 12.231146 -3.836600 7.125000 0.000000 0.000000 7.017600 -16.913000 4.708300 
-48.441588 105.981114 -179.887998 -3.293279 -6.462684 0.008575 3.413398 2.258231 1.168352 -16.235416 -9.648911 -28.845262 8.432215 16.590188 54.942764 0.086178 0.860138 3.828212 0.096000 -1.997900 -5.500000 -5.160826 -3.202290 0.412490 35.971647 8.964264 -2.094055 -1.673585 -6.322237 21.343154 0.062489 -1.137658 -3.518613 -0.390300 -4.011500 11.109200 1.550872 -0.537475 6.989109 2.591221 -0.860637 -1.196990 5.768793 0.129746 -5.240846 -10.544086 0.091876 -4.910700 3.668009 1.206516 17.066737 3.796500 -0.323700 8.273000 -7.144485 3.572136 -2.275344 -85.815932 6.980894 22.106535 12.466889 -22.721120 -2.857172 -0.779396 -3.093456 12.372143 14.563560 27.189519 7.580100 -7.125000 0.000000 0.000000 -19.332800 60.235000 -7.347100 5.557414 -2.544322 -2.036321 78.151729 -2.830966 22.019880 -15.161689 22.762134 -3.870836 0.956173 -0.608756 5.373471 -14.164369 13.744306 -3.809400 7.125000 0.000000 0.000000 8.376600 -15.379500 5.919600 
-48.593262 105.821586 -176.309490 -3.757097 -6.507817 0.075010 3.177107 2.166848 1.198633 -15.345981 -11.153539 -29.948629 6.233773 15.057753 47.217692 -0.472283 4.138762 1.414824 0.184100 -2.763300 -7.620500 -5.137695 -3.197560 0.359976 36.487601 7.620953 0.585535 -1.527394 -5.861965 20.225548 0.008337 -1.026904 -4.886263 -0.398000 -4.050400 11.218400 1.060749 -1.516892 7.254431 3.338490 -2.205918 -1.640328 7.859282 -0.382559 -6.221517 -12.332037 1.222886 -3.349694 3.369094 2.926145 16.800068 4.067600 0.313600 7.676600 -7.067716 3.742190 -2.366171 -89.010025 10.194444 16.607979 12.541769 -22.819096 -2.893531 -0.687378 -3.101210 13.626520 12.959874 27.048209 6.615400 -7.125000 0.000000 0.000000 -21.078100 59.680300 -7.763700 5.479985 -2.519659 -2.077033 75.620251 -2.332190 28.328883 -16.029449 23.988711 -4.335616 1.090203 -0.328741 4.001581 -15.772720 11.315010 -3.466800 7.125000 0.000000 0.000000 7.187500 -18.016400 4.648800 
-48.793272 105.517638 -172.708020 -4.215594 -7.203731 0.426458 3.009471 2.070930 1.084810 -14.728755 -11.437805 -30.136433 3.993559 12.885431 38.463790 -0.991936 6.796579 0.162314 0.136500 -2.381000 -6.559900 -4.985202 -3.176801 0.270585 36.682586 6.480109 3.006110 -1.355559 -5.367432 18.923555 -0.140822 -0.301351 -5.727302 -0.427800 -4.197500 11.632900 2.433428 -0.372683 6.658422 2.748288 -0.618691 -1.235828 5.477987 0.280958 -5.163249 -10.752559 0.229051 -4.426575 3.577041 1.405623 15.886636 3.796300 -0.196700 7.694600 -7.176458 3.665795 -2.262803 -87.705559 9.376063 17.585663 11.572164 -21.222668 -2.372802 -0.797554 -3.119391 14.329816 13.566142 27.277486 7.024000 -7.125000 0.000000 0.000000 -20.586700 60.090900 -7.776200 5.433027 -2.488459 -2.027617 77.259070 0.009850 25.994413 -16.746859 24.903641 -4.725940 0.954822 -0.266369 3.941380 -14.372478 10.784689 -2.981900 7.125000 0.000000 0.000000 8.271200 -18.706000 5.236300 
-48.885726 105.362340 -168.882966 -4.501226 -7.875545 0.919581 2.707700 1.990388 1.053317 -13.789511 -12.963867 -29.771060 1.961897 10.140627 29.001838 -1.594010 9.597317 0.031354 0.296000 -3.498500 -9.669900 -4.899292 -3.170937 0.214297 36.521961 5.048555 5.870343 -1.068013 -4.504616 16.594179 -0.285608 0.509808 -6.160267 -0.252000 -3.230300 8.920600 2.045338 -0.547773 6.346012 3.212938 -0.922023 -1.480842 6.744462 0.216073 -5.481545 -11.838211 0.551892 -4.093465 3.428097 2.008156 15.655483 3.942100 0.000000 7.485100 -7.180434 3.774846 -2.280686 -89.934949 10.978007 13.851138 10.980288 -20.158314 -2.058307 -0.834980 -3.142932 15.044062 13.325973 27.236690 6.889600 -7.125000 0.000000 0.000000 -20.843100 60.023900 -7.844600 5.420733 -2.481164 -2.063793 75.647383 0.974856 28.754175 -17.271773 25.611060 -4.989711 1.124103 -0.332860 2.857852 -16.341234 12.133046 -3.853200 7.125000 0.000000 0.000000 6.775500 -17.107400 4.514500 
-49.019874 104.892216 -165.193272 -5.005109 -8.452623 1.579556 2.698681 1.897931 0.846297 -12.356904 -15.013480 -28.883867 0.615554 7.562927 21.168587 -1.771074 10.200084 -1.109615 0.131400 -2.336400 -6.436400 -4.620089 -3.136661 0.090147 36.431048 3.908075 8.073691 -0.920335 -4.057826 15.365174 -0.410132 1.063890 -6.800889 -0.118900 -2.223000 6.122300 5.034326 2.892245 6.094169 1.170788 3.785059 -0.131614 0.044597 2.349830 -1.952617 -6.104107 -3.121655 -12.526955 3.822802 -3.710327 16.393590 2.548200 -2.069900 10.053000 -7.361749 3.237299 -2.029908 -83.279486 4.398279 23.268409 9.561094 -17.631056 -1.389693 -0.777407 -3.235857 14.173380 12.866909 28.894661 6.965100 -7.125000 0.000000 0.000000 -22.802900 61.500600 -9.432000 5.494973 -2.367044 -1.919655 81.144349 6.284705 17.220703 -17.971398 26.222107 -5.235701 1.100364 -0.306710 4.257477 -16.991887 11.270113 -3.710700 7.125000 0.000000 0.000000 6.326200 -18.006200 4.085800 
